<svg xmlns="http://www.w3.org/2000/svg" width="50" height="50">
    <g fill="#61DAFB">
        <path d="M25 0C11.1975 0 0 11.1975 0 25C0 38.8025 11.1975 50 25 50C38.8025 50 50 38.8025 50 25C49.979 11.1975 38.7815 0 25 0ZM35.4622 19.4118H33.9076L29.1387 24.979L33.9076 30.5462H35.4832V35.021H25.3571V30.5882H26.9328L23.8025 26.9328H22.521V30.5882H24.3067V35.021H14.4958V30.5462H16.6176V25V19.4118H14.4958V14.937H16.9118V16.5966H18.2143V14.937H20.5882V16.5966H21.8908V14.937H24.2857V19.3487H22.5V23.0042H23.7815L26.9118 19.3487H25.3361V14.937H35.4622V19.4118Z" fill="#0A0806"></path>
    </g>
</svg>